{
	"asset":{
		"generator":"Khronos glTF Blender I/O v3.6.27",
		"version":"2.0"
	},
	"scene":0,
	"scenes":[
		{
			"name":"Scene",
			"nodes":[
				0
			]
		}
	],
	"nodes":[
		{
			"mesh":0,
			"name":"plantpot",
			"scale":[
				1.1635422706604004,
				1,
				5.007558345794678
			]
		}
	],
	"materials":[
		{
			"doubleSided":true,
			"name":"Material.002",
			"normalTexture":{
				"index":0
			},
			"pbrMetallicRoughness":{
				"baseColorTexture":{
					"index":1
				},
				"metallicFactor":0,
				"metallicRoughnessTexture":{
					"index":2
				}
			}
		},
		{
			"doubleSided":true,
			"name":"Material.001",
			"normalTexture":{
				"index":3
			},
			"pbrMetallicRoughness":{
				"baseColorTexture":{
					"index":4
				},
				"metallicFactor":0,
				"metallicRoughnessTexture":{
					"index":5
				}
			}
		}
	],
	"meshes":[
		{
			"name":"Plane.002",
			"primitives":[
				{
					"attributes":{
						"POSITION":0,
						"NORMAL":1,
						"TEXCOORD_0":2
					},
					"indices":3,
					"material":0
				},
				{
					"attributes":{
						"POSITION":4,
						"NORMAL":5,
						"TEXCOORD_0":6
					},
					"indices":7,
					"material":1
				}
			]
		}
	],
	"textures":[
		{
			"sampler":0,
			"source":0
		},
		{
			"sampler":0,
			"source":1
		},
		{
			"sampler":0,
			"source":2
		},
		{
			"sampler":0,
			"source":3
		},
		{
			"sampler":0,
			"source":4
		},
		{
			"sampler":0,
			"source":5
		}
	],
	"images":[
		{
			"mimeType":"image/jpeg",
			"name":"ulmlbijg_1K_Normal",
			"uri":"ulmlbijg_1K_Normal.jpg"
		},
		{
			"mimeType":"image/jpeg",
			"name":"ulmlbijg_1K_Albedo",
			"uri":"ulmlbijg_1K_Albedo.jpg"
		},
		{
			"mimeType":"image/png",
			"name":"ulmlbijg_1K_Roughness",
			"uri":"ulmlbijg_1K_Roughness.png"
		},
		{
			"mimeType":"image/jpeg",
			"name":"rmqlwup_1K_Normal",
			"uri":"rmqlwup_1K_Normal.jpg"
		},
		{
			"mimeType":"image/jpeg",
			"name":"rmqlwup_1K_Albedo",
			"uri":"rmqlwup_1K_Albedo.jpg"
		},
		{
			"mimeType":"image/png",
			"name":"rmqlwup_1K_Roughness",
			"uri":"rmqlwup_1K_Roughness.png"
		}
	],
	"accessors":[
		{
			"bufferView":0,
			"componentType":5126,
			"count":52,
			"max":[
				1,
				0.31557345390319824,
				1
			],
			"min":[
				-1,
				0,
				-1
			],
			"type":"VEC3"
		},
		{
			"bufferView":1,
			"componentType":5126,
			"count":52,
			"type":"VEC3"
		},
		{
			"bufferView":2,
			"componentType":5126,
			"count":52,
			"type":"VEC2"
		},
		{
			"bufferView":3,
			"componentType":5123,
			"count":78,
			"type":"SCALAR"
		},
		{
			"bufferView":4,
			"componentType":5126,
			"count":20,
			"max":[
				0.8594444990158081,
				0.10866609215736389,
				0.9657537937164307
			],
			"min":[
				-0.8594444990158081,
				0.10866609215736389,
				-0.9700177907943726
			],
			"type":"VEC3"
		},
		{
			"bufferView":5,
			"componentType":5126,
			"count":20,
			"type":"VEC3"
		},
		{
			"bufferView":6,
			"componentType":5126,
			"count":20,
			"type":"VEC2"
		},
		{
			"bufferView":7,
			"componentType":5123,
			"count":30,
			"type":"SCALAR"
		}
	],
	"bufferViews":[
		{
			"buffer":0,
			"byteLength":624,
			"byteOffset":0,
			"target":34962
		},
		{
			"buffer":0,
			"byteLength":624,
			"byteOffset":624,
			"target":34962
		},
		{
			"buffer":0,
			"byteLength":416,
			"byteOffset":1248,
			"target":34962
		},
		{
			"buffer":0,
			"byteLength":156,
			"byteOffset":1664,
			"target":34963
		},
		{
			"buffer":0,
			"byteLength":240,
			"byteOffset":1820,
			"target":34962
		},
		{
			"buffer":0,
			"byteLength":240,
			"byteOffset":2060,
			"target":34962
		},
		{
			"buffer":0,
			"byteLength":160,
			"byteOffset":2300,
			"target":34962
		},
		{
			"buffer":0,
			"byteLength":60,
			"byteOffset":2460,
			"target":34963
		}
	],
	"samplers":[
		{
			"magFilter":9729,
			"minFilter":9987
		}
	],
	"buffers":[
		{
			"byteLength":2520,
			"uri":"plantpot.bin"
		}
	]
}
